<svg xmlns="http://www.w3.org/2000/svg" xmlns:xlink="http://www.w3.org/1999/xlink" width="300" zoomAndPan="magnify" viewBox="0 0 224.87999 93.749996" height="125" preserveAspectRatio="xMidYMid meet" version="1.0"><defs><g/></defs><g fill="#000000" fill-opacity="1"><g transform="translate(2.545976, 65.824462)"><g><path d="M 6.640625 -4.4375 C 3.285156 -8.101562 1.609375 -12.597656 1.609375 -17.921875 C 1.609375 -23.242188 3.285156 -27.75 6.640625 -31.4375 C 10.003906 -35.125 14.28125 -36.96875 19.46875 -36.96875 C 24.226562 -36.96875 28.148438 -35.476562 31.234375 -32.5 L 31.234375 -35.921875 L 43.625 -35.921875 L 43.625 0 L 31.375 0 L 31.375 -4.0625 L 31.234375 -4.0625 C 28.148438 -0.65625 24.226562 1.046875 19.46875 1.046875 C 14.28125 1.046875 10.003906 -0.78125 6.640625 -4.4375 Z M 17.1875 -24.015625 C 15.582031 -22.429688 14.78125 -20.398438 14.78125 -17.921875 C 14.78125 -15.453125 15.550781 -13.4375 17.09375 -11.875 C 18.632812 -10.3125 20.664062 -9.53125 23.1875 -9.53125 C 25.613281 -9.53125 27.609375 -10.320312 29.171875 -11.90625 C 30.734375 -13.488281 31.515625 -15.492188 31.515625 -17.921875 C 31.515625 -20.398438 30.707031 -22.429688 29.09375 -24.015625 C 27.488281 -25.609375 25.519531 -26.40625 23.1875 -26.40625 C 20.800781 -26.40625 18.800781 -25.609375 17.1875 -24.015625 Z M 17.1875 -24.015625 "/></g></g></g><g fill="#000000" fill-opacity="1"><g transform="translate(43.786672, 65.824462)"><g><path d="M 13.3125 -35.921875 L 22.0625 -16.390625 L 30.8125 -35.921875 L 45.515625 -35.921875 L 26.265625 0 L 17.859375 0 L -1.40625 -35.921875 Z M 13.3125 -35.921875 "/></g></g></g><g fill="#000000" fill-opacity="1"><g transform="translate(81.316286, 65.824462)"><g><path d="M 5.390625 -55.953125 C 6.835938 -57.398438 8.566406 -58.125 10.578125 -58.125 C 12.585938 -58.125 14.3125 -57.398438 15.75 -55.953125 C 17.195312 -54.503906 17.921875 -52.773438 17.921875 -50.765625 C 17.921875 -48.765625 17.195312 -47.039062 15.75 -45.59375 C 14.3125 -44.144531 12.585938 -43.421875 10.578125 -43.421875 C 8.566406 -43.421875 6.835938 -44.144531 5.390625 -45.59375 C 3.941406 -47.039062 3.21875 -48.765625 3.21875 -50.765625 C 3.21875 -52.773438 3.941406 -54.503906 5.390625 -55.953125 Z M 4.203125 -35.921875 L 4.203125 0 L 16.59375 0 L 16.59375 -35.921875 Z M 4.203125 -35.921875 "/></g></g></g><g fill="#000000" fill-opacity="1"><g transform="translate(95.879252, 65.824462)"><g><path d="M 6.640625 -4.4375 C 3.285156 -8.101562 1.609375 -12.597656 1.609375 -17.921875 C 1.609375 -23.242188 3.285156 -27.75 6.640625 -31.4375 C 10.003906 -35.125 14.28125 -36.96875 19.46875 -36.96875 C 24.226562 -36.96875 28.148438 -35.476562 31.234375 -32.5 L 31.234375 -35.921875 L 43.625 -35.921875 L 43.625 0 L 31.375 0 L 31.375 -4.0625 L 31.234375 -4.0625 C 28.148438 -0.65625 24.226562 1.046875 19.46875 1.046875 C 14.28125 1.046875 10.003906 -0.78125 6.640625 -4.4375 Z M 17.1875 -24.015625 C 15.582031 -22.429688 14.78125 -20.398438 14.78125 -17.921875 C 14.78125 -15.453125 15.550781 -13.4375 17.09375 -11.875 C 18.632812 -10.3125 20.664062 -9.53125 23.1875 -9.53125 C 25.613281 -9.53125 27.609375 -10.320312 29.171875 -11.90625 C 30.734375 -13.488281 31.515625 -15.492188 31.515625 -17.921875 C 31.515625 -20.398438 30.707031 -22.429688 29.09375 -24.015625 C 27.488281 -25.609375 25.519531 -26.40625 23.1875 -26.40625 C 20.800781 -26.40625 18.800781 -25.609375 17.1875 -24.015625 Z M 17.1875 -24.015625 "/></g></g></g><g fill="#000000" fill-opacity="1"><g transform="translate(137.119948, 65.824462)"><g><path d="M 6.296875 -35.921875 L 6.296875 -49.296875 L 18.703125 -49.296875 L 18.703125 -35.921875 L 26.265625 -35.921875 L 26.265625 -26.46875 L 18.703125 -26.46875 L 18.703125 -15.0625 C 18.703125 -11.738281 19.632812 -10.078125 21.5 -10.078125 C 21.96875 -10.078125 22.457031 -10.171875 22.96875 -10.359375 C 23.476562 -10.546875 23.875 -10.734375 24.15625 -10.921875 L 24.578125 -11.203125 L 27.65625 -1.1875 C 25 0.300781 21.96875 1.046875 18.5625 1.046875 C 16.226562 1.046875 14.21875 0.640625 12.53125 -0.171875 C 10.851562 -0.992188 9.582031 -2.09375 8.71875 -3.46875 C 7.851562 -4.84375 7.234375 -6.285156 6.859375 -7.796875 C 6.484375 -9.316406 6.296875 -10.941406 6.296875 -12.671875 L 6.296875 -26.46875 L 1.125 -26.46875 L 1.125 -35.921875 Z M 6.296875 -35.921875 "/></g></g></g><g fill="#000000" fill-opacity="1"><g transform="translate(158.194804, 65.824462)"><g><path d="M 7.59375 -4.265625 C 3.601562 -7.816406 1.609375 -12.367188 1.609375 -17.921875 C 1.609375 -23.484375 3.6875 -28.046875 7.84375 -31.609375 C 12 -35.179688 17.132812 -36.96875 23.25 -36.96875 C 29.269531 -36.96875 34.347656 -35.171875 38.484375 -31.578125 C 42.617188 -27.984375 44.6875 -23.429688 44.6875 -17.921875 C 44.6875 -12.421875 42.664062 -7.882812 38.625 -4.3125 C 34.582031 -0.738281 29.457031 1.046875 23.25 1.046875 C 16.8125 1.046875 11.59375 -0.722656 7.59375 -4.265625 Z M 17.1875 -24.015625 C 15.582031 -22.429688 14.78125 -20.398438 14.78125 -17.921875 C 14.78125 -15.453125 15.550781 -13.4375 17.09375 -11.875 C 18.632812 -10.3125 20.664062 -9.53125 23.1875 -9.53125 C 25.613281 -9.53125 27.609375 -10.320312 29.171875 -11.90625 C 30.734375 -13.488281 31.515625 -15.492188 31.515625 -17.921875 C 31.515625 -20.398438 30.707031 -22.429688 29.09375 -24.015625 C 27.488281 -25.609375 25.519531 -26.40625 23.1875 -26.40625 C 20.800781 -26.40625 18.800781 -25.609375 17.1875 -24.015625 Z M 17.1875 -24.015625 "/></g></g></g><g fill="#000000" fill-opacity="1"><g transform="translate(197.895055, 65.824462)"><g><path d="M 12.1875 -14.984375 C 14.425781 -14.984375 16.328125 -14.203125 17.890625 -12.640625 C 19.453125 -11.078125 20.234375 -9.175781 20.234375 -6.9375 C 20.234375 -4.738281 19.453125 -2.859375 17.890625 -1.296875 C 16.328125 0.265625 14.425781 1.046875 12.1875 1.046875 C 9.988281 1.046875 8.109375 0.265625 6.546875 -1.296875 C 4.984375 -2.859375 4.203125 -4.738281 4.203125 -6.9375 C 4.203125 -9.175781 4.984375 -11.078125 6.546875 -12.640625 C 8.109375 -14.203125 9.988281 -14.984375 12.1875 -14.984375 Z M 12.1875 -14.984375 "/></g></g></g></svg>